<svg xmlns="http://www.w3.org/2000/svg" viewBox="8849.069 2892 36.967 37.095">
  <defs>
    <style>
      .cls-1 {
        fill: #fff;
      }

      .cls-2 {
        fill: #68bbe8;
        fill-rule: evenodd;
      }
    </style>
  </defs>
  <g id="icon_youtube" transform="translate(8746 2892)">
    <path id="Path_17" data-name="Path 17" class="cls-1" d="M112.646,37.095H84.921A4.6,4.6,0,0,1,80.3,32.474V4.621A4.6,4.6,0,0,1,84.921,0h27.725a4.6,4.6,0,0,1,4.621,4.621V32.346A4.712,4.712,0,0,1,112.646,37.095Z" transform="translate(22.769)"/>
    <path id="Path_27" data-name="Path 27" class="cls-2" d="M88.757,22.923a2.314,2.314,0,0,1-1.54-1.54c-.642-1.925-.9-9.883.385-11.424a2.194,2.194,0,0,1,1.669-.9c3.594-.385,14.633-.385,15.916.128a2.314,2.314,0,0,1,1.54,1.54c.77,1.925.77,9.113-.128,11.039a2.519,2.519,0,0,1-1.155,1.155C104.288,23.436,90.426,23.436,88.757,22.923ZM94.405,19.2c2.182-1.155,4.236-2.182,6.418-3.337-2.182-1.155-4.236-2.182-6.418-3.337Z" transform="translate(24.58 2.491)"/>
  </g>
</svg>
