<svg xmlns="http://www.w3.org/2000/svg" viewBox="9879.352 24.137 26.799 24.001">
  <defs>
    <style>
      .cls-1 {
        fill: #e7f1f5;
      }
    </style>
  </defs>
  <path id="icon_notifications" class="cls-1" d="M-9856.352,4666.867c0-6.562,4.16-11.92,9.36-11.92a9.074,9.074,0,0,1,7.681,4.959,9.308,9.308,0,0,0-2.88,6.961Zm15.759,0c0-3.918,2.481-7.119,5.521-7.119s5.519,3.2,5.519,7.119Zm1.321-12.039a4.2,4.2,0,0,1,4.2-4.2,4.2,4.2,0,0,1,4.2,4.2,4.2,4.2,0,0,1-4.2,4.2A4.2,4.2,0,0,1-9839.271,4654.825Zm-13.08-6.6a5.36,5.36,0,0,1,5.36-5.36,5.359,5.359,0,0,1,5.357,5.36,5.361,5.361,0,0,1-5.357,5.36A5.361,5.361,0,0,1-9852.352,4648.226Z" transform="translate(19735.703 -4618.729)"/>
</svg>
