<svg xmlns="http://www.w3.org/2000/svg" viewBox="9831.611 21.611 28 28">
  <defs>
    <style>
      .cls-1 {
        fill: #f00268;
        opacity: 0.467;
      }
    </style>
  </defs>
  <path id="icon_settings" class="cls-1" d="M26.686,11.675H24.412a.655.655,0,0,1-.657-.505h0A8.247,8.247,0,0,0,22.845,9h0a.7.7,0,0,1,.1-.859L24.513,6.57a1.252,1.252,0,0,0,0-1.718L23,3.336a1.252,1.252,0,0,0-1.718,0L19.711,4.9a.754.754,0,0,1-.859.1h0a10.375,10.375,0,0,0-2.173-.91h0a.655.655,0,0,1-.505-.657V1.213A1.156,1.156,0,0,0,15.011,0H12.888a1.23,1.23,0,0,0-1.213,1.213V3.487a.655.655,0,0,1-.505.657h0A8.247,8.247,0,0,0,9,5.054H9a.7.7,0,0,1-.859-.1L6.57,3.386a1.252,1.252,0,0,0-1.718,0L3.336,4.9a1.252,1.252,0,0,0,0,1.718L4.9,8.188a.754.754,0,0,1,.1.859H5a10.375,10.375,0,0,0-.91,2.173h0a.655.655,0,0,1-.657.505H1.213A1.23,1.23,0,0,0,0,12.939v2.123a1.23,1.23,0,0,0,1.213,1.213H3.487a.655.655,0,0,1,.657.505h0a8.247,8.247,0,0,0,.91,2.173h0a.7.7,0,0,1-.1.859L3.386,21.379a1.252,1.252,0,0,0,0,1.718L4.9,24.614a1.252,1.252,0,0,0,1.718,0l1.567-1.567a.754.754,0,0,1,.859-.1h0a10.375,10.375,0,0,0,2.173.91h0a.655.655,0,0,1,.505.657v2.274A1.23,1.23,0,0,0,12.939,28h2.123a1.23,1.23,0,0,0,1.213-1.213V24.513a.655.655,0,0,1,.505-.657h0a8.247,8.247,0,0,0,2.173-.91h0a.7.7,0,0,1,.859.1l1.567,1.567a1.252,1.252,0,0,0,1.718,0L24.614,23.1a1.252,1.252,0,0,0,0-1.718l-1.567-1.567a.754.754,0,0,1-.1-.859h0a10.375,10.375,0,0,0,.91-2.173h0a.655.655,0,0,1,.657-.505h2.274A1.23,1.23,0,0,0,28,15.061V12.939A1.4,1.4,0,0,0,26.686,11.675ZM13.949,18.6a4.675,4.675,0,1,1,4.65-4.7A4.649,4.649,0,0,1,13.949,18.6Z" transform="translate(9831.611 21.611)"/>
</svg>
