<svg xmlns="http://www.w3.org/2000/svg" viewBox="8901.438 2892 36.972 37.095">
  <defs>
    <style>
      .cls-1 {
        fill: #fff;
      }

      .cls-2 {
        fill: #68bbe8;
        fill-rule: evenodd;
      }
    </style>
  </defs>
  <g id="icon_insta" transform="translate(8746 2892)">
    <path id="Path_18" data-name="Path 18" class="cls-1" d="M153.446,37.095H125.721a4.6,4.6,0,0,1-4.621-4.621V4.621A4.6,4.6,0,0,1,125.721,0h27.725a4.6,4.6,0,0,1,4.621,4.621V32.346A4.63,4.63,0,0,1,153.446,37.095Z" transform="translate(34.338)"/>
    <path id="Path_26" data-name="Path 26" class="cls-2" d="M143.8,7.3H131.224a2.849,2.849,0,0,0-2.824,2.824V22.7a2.849,2.849,0,0,0,2.824,2.824H143.8a2.849,2.849,0,0,0,2.824-2.824V10.124A2.693,2.693,0,0,0,143.8,7.3Zm-2.31,2.567a.552.552,0,0,1,.513-.513h2.182a.552.552,0,0,1,.513.513v2.182a.552.552,0,0,1-.513.513h-2.182a.552.552,0,0,1-.513-.513Zm-7.316,5.263a3.655,3.655,0,0,1,3.337-2.31,3.474,3.474,0,0,1,3.337,2.31,4.56,4.56,0,0,1,.257,1.284,3.594,3.594,0,0,1-7.188,0A4.561,4.561,0,0,1,134.176,15.13ZM144.829,22.7a.877.877,0,0,1-.9.9H131.352a.877.877,0,0,1-.9-.9V15.13h1.8a4.367,4.367,0,0,0-.128,1.284,5.519,5.519,0,0,0,11.039,0,3.957,3.957,0,0,0-.128-1.284h1.8V22.7Z" transform="translate(36.408 2.07)"/>
  </g>
</svg>
