<svg xmlns="http://www.w3.org/2000/svg" viewBox="8954.706 2892 36.967 37.095">
  <defs>
    <style>
      .cls-1 {
        fill: #fff;
      }

      .cls-2 {
        fill: #68bbe9;
      }
    </style>
  </defs>
  <g id="icon_youtube2" transform="translate(8746 2892)">
    <path id="Path_19" data-name="Path 19" class="cls-1" d="M194.946,37.095H167.221a4.6,4.6,0,0,1-4.621-4.621V4.621A4.6,4.6,0,0,1,167.221,0h27.725a4.6,4.6,0,0,1,4.621,4.621V32.346A4.712,4.712,0,0,1,194.946,37.095Z" transform="translate(46.106)"/>
    <g id="Group_25" data-name="Group 25" transform="translate(218.846 8.343)">
      <path id="Path_22" data-name="Path 22" class="cls-2" d="M176.451,6.5H175.3l-.77,2.952-.77-2.952H172.6c.257.642.513,1.412.77,2.182a8.543,8.543,0,0,1,.642,2.439V14.2h1.155V10.992Zm3.081,5.776V10.351a2.761,2.761,0,0,0-.257-1.284,1.361,1.361,0,0,0-2.31,0,1.916,1.916,0,0,0-.385,1.284v1.925a1.7,1.7,0,0,0,.385,1.284,1.361,1.361,0,0,0,2.31,0A2.761,2.761,0,0,0,179.531,12.276Zm-1.027.257c0,.513-.128.77-.513.77s-.513-.257-.513-.77V10.094c0-.513.128-.77.513-.77s.513.257.513.77Zm4.749,1.54V8.425h-1.027v4.364c-.257.385-.385.513-.642.513a.276.276,0,0,1-.257-.257V8.425H180.3v4.492a1.9,1.9,0,0,0,.128.9.706.706,0,0,0,.642.385,1.774,1.774,0,0,0,1.155-.642V14.2h1.027Z" transform="translate(-169.905 -6.5)"/>
      <g id="Group_24" data-name="Group 24" transform="translate(0 8.6)">
        <path id="Path_23" data-name="Path 23" class="cls-2" d="M178.513,16.9a.973.973,0,0,0-.513.257v3.466a.973.973,0,0,0,.513.257q.385,0,.385-.77V17.67C179.027,17.157,178.77,16.9,178.513,16.9Z" transform="translate(-168.373 -12.151)"/>
        <path id="Path_24" data-name="Path 24" class="cls-2" d="M181.513,16.9c-.385,0-.513.257-.513.77v.513h1.027V17.67C182.027,17.157,181.77,16.9,181.513,16.9Z" transform="translate(-167.523 -12.151)"/>
        <path id="Path_25" data-name="Path 25" class="cls-2" d="M186.93,15.125a2.19,2.19,0,0,0-1.8-1.669,51.541,51.541,0,0,0-6.289-.257,51.54,51.54,0,0,0-6.289.257,2.045,2.045,0,0,0-1.8,1.669A20.734,20.734,0,0,0,170.5,19.1a20.734,20.734,0,0,0,.257,3.979,2.19,2.19,0,0,0,1.8,1.669,51.539,51.539,0,0,0,6.289.257,51.54,51.54,0,0,0,6.289-.257,2.046,2.046,0,0,0,1.8-1.669,20.737,20.737,0,0,0,.257-3.979A20.737,20.737,0,0,0,186.93,15.125Zm-11.809,1.155h-1.284V22.7h-1.155V16.281h-1.155V15.254h3.594v1.027ZM178.2,22.7h-1.027v-.642a1.358,1.358,0,0,1-1.155.642.593.593,0,0,1-.642-.385,4.554,4.554,0,0,1-.128-.9V16.922h1.027v4.492a.276.276,0,0,0,.257.257c.257,0,.385-.128.642-.513V16.922H178.2Zm3.979-1.669a2.848,2.848,0,0,1-.128,1.155.814.814,0,0,1-.77.642,1.309,1.309,0,0,1-1.027-.642V22.7h-1.027V15.125h1.027v2.439c.385-.385.642-.642,1.027-.642a.814.814,0,0,1,.77.642,2.848,2.848,0,0,1,.128,1.155Zm3.851-.9h-2.054v1.027c0,.513.128.77.513.77.257,0,.385-.128.513-.385V20.9h1.027v.77c0,.257-.128.385-.257.642a1.416,1.416,0,0,1-1.284.642,1.648,1.648,0,0,1-1.284-.513,1.916,1.916,0,0,1-.385-1.284V19.233a2.762,2.762,0,0,1,.257-1.284,1.352,1.352,0,0,1,1.284-.513,1.251,1.251,0,0,1,1.155.513,1.924,1.924,0,0,1,.257,1.284v.9Z" transform="translate(-170.5 -13.2)"/>
      </g>
    </g>
  </g>
</svg>
