<svg xmlns="http://www.w3.org/2000/svg" viewBox="8795.931 2892 36.843 37.095">
  <defs>
    <style>
      .cls-1 {
        fill: #fff;
      }

      .cls-2 {
        fill: #68bbe8;
        fill-rule: evenodd;
      }
    </style>
  </defs>
  <g id="icon_twitter" transform="translate(8746 2892)">
    <path id="Path_16" data-name="Path 16" class="cls-1" d="M71.117,37.095h-27.6A4.6,4.6,0,0,1,38.9,32.474V4.621A4.6,4.6,0,0,1,43.521,0h27.6a4.6,4.6,0,0,1,4.621,4.621V32.346A4.63,4.63,0,0,1,71.117,37.095Z" transform="translate(11.03)"/>
    <path id="Path_21" data-name="Path 21" class="cls-2" d="M51.489,20.981a4.425,4.425,0,0,1-3.979-2.952,4.241,4.241,0,0,0,1.8,0h0a4.127,4.127,0,0,1-2.7-1.925,4.327,4.327,0,0,1-.642-2.182,4.759,4.759,0,0,0,1.925.513,4.523,4.523,0,0,1-1.8-2.567,3.83,3.83,0,0,1,.513-3.081,12.037,12.037,0,0,0,8.728,4.364.97.97,0,0,0-.128-.513,3.868,3.868,0,0,1,.642-2.7,4.38,4.38,0,0,1,2.824-1.925A4.03,4.03,0,0,1,62.4,9.172c.128.128.128.128.257.128A7.946,7.946,0,0,0,65.1,8.4h0a3.894,3.894,0,0,1-1.669,2.182,7.792,7.792,0,0,0,2.31-.642h0c-.128.257-.257.385-.385.642A5.472,5.472,0,0,1,63.812,12l-.128.128a9.715,9.715,0,0,1-.128,1.925,12.337,12.337,0,0,1-1.027,3.722,9.769,9.769,0,0,1-2.31,3.337,11.792,11.792,0,0,1-5.776,3.209,14.143,14.143,0,0,1-2.31.257,11.8,11.8,0,0,1-6.8-1.8L45.2,22.65a8.174,8.174,0,0,0,4.236-.642A4.447,4.447,0,0,0,51.489,20.981Z" transform="translate(12.817 2.251)"/>
  </g>
</svg>
