<svg xmlns="http://www.w3.org/2000/svg" viewBox="8746 2892 36.972 37.095">
  <defs>
    <style>
      .cls-1 {
        fill: #fff;
      }

      .cls-2 {
        fill: #69bcea;
        fill-rule: evenodd;
      }
    </style>
  </defs>
  <g id="icon_facebook" transform="translate(8746 2892)">
    <path id="Path_15" data-name="Path 15" class="cls-1" d="M32.346,37.095H4.621A4.6,4.6,0,0,1,0,32.474V4.621A4.6,4.6,0,0,1,4.621,0H32.346a4.6,4.6,0,0,1,4.621,4.621V32.346A4.63,4.63,0,0,1,32.346,37.095Z"/>
    <path id="Path_20" data-name="Path 20" class="cls-2" d="M18.743,10.066h2.182V6.728c-.385,0-.642-.128-1.027-.128H17.973a4.029,4.029,0,0,0-2.7.9,4.257,4.257,0,0,0-1.669,2.7,5.265,5.265,0,0,0-.128,1.412v2.439H10.4v3.594h3.081v9.113H17.2V17.639h3.081a34.6,34.6,0,0,1,.513-3.594H17.331V11.478C17.2,10.322,17.845,10.066,18.743,10.066Z" transform="translate(2.949 1.871)"/>
  </g>
</svg>
