<svg xmlns="http://www.w3.org/2000/svg" viewBox="9280 476.687 41.174 51.813">
  <defs>
    <style>
      .cls-1 {
        fill: #f4f4f4;
      }

      .cls-2 {
        fill: #e1006a;
      }

      .cls-3 {
        fill: #fff;
      }
    </style>
  </defs>
  <g id="icon_phone" transform="translate(8371)">
    <ellipse id="Ellipse_355" data-name="Ellipse 355" class="cls-1" cx="20.587" cy="8.981" rx="20.587" ry="8.981" transform="translate(909 510.538)"/>
    <g id="Group_2307" data-name="Group 2307" transform="translate(916.461 476.687)">
      <path id="Path_1375" data-name="Path 1375" class="cls-2" d="M29.994,0H7.058A1.68,1.68,0,0,0,5.4,1.658v41.45a1.6,1.6,0,0,0,1.658,1.658H29.994a1.6,1.6,0,0,0,1.658-1.658V1.658A1.6,1.6,0,0,0,29.994,0ZM14.519,3.731h8.014a.892.892,0,0,1,.829.829.892.892,0,0,1-.829.829H14.519a.892.892,0,0,1-.829-.829A.8.8,0,0,1,14.519,3.731Zm5.665,37.72a1.641,1.641,0,0,1-1.658,1.382,1.777,1.777,0,0,1-1.658-1.382v-.276a1.658,1.658,0,1,1,3.316,0Zm8.152-4.19H8.854V7.737H28.336Z" transform="translate(-5.4)"/>
      <rect id="Rectangle_3143" data-name="Rectangle 3143" class="cls-3" width="19.482" height="29.811" transform="translate(3.454 7.737)"/>
      <path id="Path_1376" data-name="Path 1376" class="cls-3" d="M19,31.25v.442A2.623,2.623,0,0,1,16.35,33.9a2.841,2.841,0,0,1-2.65-2.209V31.25a2.552,2.552,0,0,1,2.65-2.65A2.686,2.686,0,0,1,19,31.25Z" transform="translate(-3.224 9.924)"/>
      <path id="Path_1377" data-name="Path 1377" class="cls-3" d="M21.072,3.529a.892.892,0,0,1-.829.829H12.229a.892.892,0,0,1-.829-.829.892.892,0,0,1,.829-.829h8.014A.733.733,0,0,1,21.072,3.529Z" transform="translate(-3.11 1.031)"/>
    </g>
  </g>
</svg>
